<svg width="25" height="25" viewBox="0 0 25 25" fill="none" xmlns="http://www.w3.org/2000/svg">
<path fill-rule="evenodd" clip-rule="evenodd" d="M18.3185 7.85072C18.8003 7.36896 18.8003 6.58787 18.3185 6.1061C17.8367 5.62434 17.0557 5.62434 16.5739 6.1061L12.2123 10.4677L7.85084 6.10619C7.36907 5.62442 6.58798 5.62442 6.10622 6.10619C5.62445 6.58795 5.62445 7.36904 6.10622 7.85081L10.4677 12.2123L6.10617 16.5738C5.6244 17.0556 5.6244 17.8367 6.10617 18.3184C6.58793 18.8002 7.36902 18.8002 7.85079 18.3184L12.2123 13.9569L16.5739 18.3185C17.0557 18.8003 17.8368 18.8003 18.3186 18.3185C18.8003 17.8368 18.8003 17.0557 18.3186 16.5739L13.9569 12.2123L18.3185 7.85072Z" fill="#6E49FF"/>
</svg>
