<svg width="40" height="40" viewBox="0 0 40 40" fill="none" xmlns="http://www.w3.org/2000/svg">
<path d="M6.31396 14.4451C6.13762 14.2232 5.80531 14.103 5.54289 14.2102C5.36108 14.2844 5.26029 14.4544 5.12833 14.5998C4.63505 15.1435 4.12018 15.7336 3.69213 16.1824C3.52858 16.3539 3.34293 16.5259 3.30021 16.759C3.26809 16.9342 3.29901 17.1147 3.37823 17.2713C3.96293 18.1701 4.80749 19.1332 5.84694 20.2247C5.97687 20.3531 6.17177 20.4173 6.3017 20.4173C6.48326 20.4173 6.65846 20.3243 6.77758 20.1873C6.89344 20.054 6.95136 19.8826 6.95136 19.7111L6.43164 14.7673C6.43164 14.6454 6.38779 14.5381 6.31396 14.4451ZM4.91858 17.1333C4.82393 17.0304 4.81535 16.8794 4.9134 16.7798C5.07116 16.6194 5.37618 16.6953 5.40441 16.9185L5.4073 16.9414C5.4402 17.2015 5.10996 17.3427 4.93307 17.1491C4.92824 17.1438 4.92341 17.1386 4.91858 17.1333ZM14.8123 20.4173C15.0072 20.4173 15.1371 20.3531 15.267 20.2247C16.3065 19.1332 17.151 18.1701 17.7357 17.2713C17.9306 17.0144 17.8657 16.6934 17.6708 16.5008C17.216 15.9872 16.4364 15.0883 15.7867 14.4462C15.5918 14.2536 15.332 14.1894 15.1371 14.2536C14.8772 14.3178 14.7473 14.5104 14.6823 14.7673L14.0976 19.7111C14.0976 19.9679 14.2276 20.2247 14.4874 20.3531C14.6174 20.4173 14.7473 20.4173 14.8123 20.4173ZM15.7999 16.9223C15.8204 16.6799 16.1001 16.5818 16.2617 16.7638C16.2686 16.7715 16.2755 16.7793 16.2823 16.787C16.3702 16.885 16.3924 17.0253 16.3153 17.132C16.151 17.3588 15.7764 17.2014 15.7999 16.9223ZM27.0558 21.9307C27.1458 21.7706 27.3509 21.7178 27.5112 21.8073C27.8705 22.0077 28.2533 22.1901 28.6404 22.3921C28.7933 22.4719 28.8553 22.6574 28.7845 22.8148C28.7101 22.9805 28.5158 23.0554 28.3517 22.9777C27.9618 22.7931 27.5719 22.5848 27.1821 22.3719C27.0244 22.2858 26.9678 22.0873 27.0558 21.9307ZM24.8715 20.5595C24.7693 20.6942 24.5777 20.7216 24.444 20.6182C24.1003 20.3523 23.7567 20.0671 23.413 19.7996C23.2644 19.684 23.2488 19.4632 23.3827 19.3308C23.4959 19.219 23.6756 19.2122 23.7971 19.315C24.1113 19.5809 24.4497 19.862 24.7934 20.1019C24.9427 20.2062 24.9816 20.4145 24.8715 20.5595ZM23.926 26.4645C24.0579 26.3528 24.2558 26.3731 24.3667 26.5056C24.6673 26.8647 24.9638 27.1715 25.2371 27.4448C25.363 27.5706 25.3632 27.7748 25.2366 27.8999C25.1121 28.023 24.9114 28.0234 24.7878 27.8993C24.5028 27.6129 24.1923 27.2843 23.8781 26.8708C23.7824 26.7448 23.8053 26.5667 23.926 26.4645ZM21.251 22.8206C21.3943 22.7321 21.5817 22.7668 21.6788 22.9045C21.9252 23.2539 22.152 23.6184 22.3965 23.9425C22.5062 24.0879 22.4832 24.2981 22.3369 24.4065C22.1992 24.5086 22.0049 24.481 21.9018 24.3441C21.6373 23.9929 21.3776 23.637 21.1432 23.2559C21.0514 23.1066 21.1018 22.9128 21.251 22.8206ZM18.2794 25.2365C18.4441 25.1641 18.6361 25.2422 18.705 25.4084C18.8788 25.8279 19.0479 26.223 19.1925 26.6132C19.2527 26.7759 19.1731 26.9556 19.0142 27.0254C18.8459 27.0993 18.6492 27.0238 18.5786 26.8541C18.4165 26.4641 18.2734 26.069 18.1099 25.6493C18.0472 25.4884 18.1213 25.3059 18.2794 25.2365ZM39.1983 18.82C39.2234 18.491 38.951 18.1794 38.6263 18.1209C38.5686 18.1105 38.5119 18.1059 38.4599 18.1059C31.3786 19.0048 26.4412 15.2809 22.0884 11.9422C18.8792 9.53173 16.0504 7.37192 13.1009 7.81571C13.0447 7.82416 12.9991 7.78829 12.9842 7.73346C12.97 7.68105 12.9648 7.61052 13.0055 7.57463C13.7378 6.92955 14.1626 5.93669 14.1626 4.94382V3.5313C14.1626 1.60514 12.5384 0 10.5895 0C8.64048 0 7.01633 1.60514 7.01633 3.5313V4.94382C7.01633 5.92564 7.43173 6.84882 8.1491 7.54519C8.21271 7.60694 8.25192 7.691 8.2319 7.77736C8.1986 7.92101 8.08279 8.04762 7.9398 8.08364C6.89655 8.34645 6.12532 8.75949 5.52211 9.11718C5.13232 9.30979 4.74252 9.63082 4.41769 9.95185C3.57313 10.9149 1.42925 13.3547 0.194898 15.6019C-0.064966 16.1156 -0.064966 16.7576 0.194898 17.2713C0.750379 18.296 1.77026 19.4877 2.8695 20.537C4.27009 21.8741 5.15175 23.7594 4.87681 25.6761L2.97413 38.9406C2.9404 39.1757 2.88503 39.4213 2.95775 39.6474C2.97692 39.707 3.0068 39.7613 3.0534 39.8074C3.18333 39.9358 3.37823 40 3.57313 40H6.4966C6.66478 40 6.83296 39.9193 6.96592 39.7928C7.11217 39.6536 7.17585 39.4534 7.2347 39.2603C8.24422 35.9472 12.9347 35.9472 13.9442 39.2603L14.0327 39.5506C14.0976 39.8074 14.3575 40 14.6823 40H17.6058C17.8007 40 17.9956 39.9358 18.1255 39.8074C18.152 39.7812 18.1757 39.7524 18.1962 39.7215C18.3609 39.4734 18.2336 39.1456 18.1901 38.851L17.3933 33.4514C17.3684 33.282 17.4996 33.13 17.6708 33.13C28.3902 33.13 36.1861 27.9936 39.1745 18.9406C39.1874 18.9024 39.1952 18.8617 39.1983 18.82ZM15.1371 38.7242C15.1371 38.7337 15.1237 38.7356 15.1209 38.7265L11.2391 25.8748C11.1742 25.618 10.9143 25.4254 10.5895 25.4254C10.4382 25.4254 10.3151 25.4671 10.2136 25.5377C9.97394 25.7044 9.89735 26.0153 9.81295 26.2948L6.23329 38.1462C6.11962 38.5226 5.77286 38.7801 5.3797 38.7801C4.83746 38.7801 4.42075 38.3002 4.49684 37.7633L6.6915 22.2793C6.75647 22.0225 6.62653 21.7656 6.36667 21.6372C4.80749 20.7384 2.33878 18.3628 1.36429 16.6292C1.29932 16.5008 1.29932 16.3082 1.36429 16.1798C2.46871 13.9968 4.54762 11.6854 5.39218 10.7865C5.58708 10.5297 5.84694 10.3371 6.23674 10.1445C6.82143 9.82343 7.66599 9.374 8.90035 9.11718C9.16021 9.05297 9.35511 8.86035 9.42007 8.66774C9.51573 8.33684 9.57618 8.00595 9.62734 7.67505C9.66391 7.4385 9.7159 7.18616 9.61691 6.96823C9.57601 6.87817 9.51272 6.80262 9.42007 6.74157C8.77041 6.29213 8.44558 5.65008 8.44558 4.87962V3.46709C8.44558 2.24719 9.48504 1.2199 10.7194 1.2199C11.9537 1.2199 12.9932 2.24719 12.9932 3.46709V4.87962C12.9932 5.65008 12.6034 6.29213 12.0187 6.74157C11.9583 6.78141 11.9041 6.83359 11.86 6.89239C11.6782 7.13492 11.7783 7.47072 11.8264 7.77C11.8745 8.06924 11.9322 8.36849 12.0187 8.66774C12.0837 8.92456 12.2786 9.05297 12.5384 9.11718C13.7078 9.374 14.5524 9.82343 15.202 10.1445C15.4619 10.2729 15.7218 10.4655 15.9816 10.7223C16.8262 11.6212 18.9051 13.9326 20.0095 16.1156C20.0745 16.244 20.0745 16.4366 20.0095 16.565C19.035 18.2986 16.5663 20.6742 15.0072 21.573C14.8123 21.7014 14.6823 21.9583 14.6823 22.2151L16.8796 37.7174C16.9543 38.2446 16.5451 38.7159 16.0127 38.7159H15.1453C15.1408 38.7159 15.1371 38.7196 15.1371 38.7242ZM21.4365 31.6043C18.9874 31.9249 16.8988 30.0389 16.5574 27.5926L15.8991 22.8758C15.8699 22.6664 15.9576 22.458 16.1328 22.3398C16.17 22.3147 16.208 22.2892 16.2464 22.2632C16.5091 22.0862 16.8637 22.1938 16.9489 22.4989C16.9616 22.5444 16.9745 22.5897 16.9879 22.6346C17.0366 22.7981 17.212 22.8799 17.3741 22.8265C17.5397 22.7719 17.6326 22.5961 17.5838 22.4287C17.5383 22.2722 17.4927 22.1175 17.4471 21.9673C17.3507 21.6494 17.4441 21.3026 17.6922 21.0817C17.9701 20.8345 18.2444 20.5838 18.5081 20.3226C18.7448 20.0883 19.1468 20.1248 19.3113 20.4143C19.3403 20.4653 19.3693 20.5172 19.3983 20.57C19.4865 20.7309 19.6881 20.7936 19.8488 20.7053C20.0083 20.6178 20.0645 20.4162 19.976 20.2572C19.899 20.1188 19.8275 19.9874 19.7591 19.8628C19.6022 19.5773 19.6299 19.2224 19.8359 18.9701C20.2152 18.5054 20.572 18.0464 20.8315 17.6113C20.9113 17.4775 21.0806 17.4356 21.1662 17.5658C21.2382 17.6753 21.3967 17.7198 21.5019 17.6418L21.573 17.5891C21.7137 17.4848 21.7414 17.2862 21.6266 17.154C21.5311 17.0442 21.4314 16.9344 21.3375 16.8245C21.2315 16.7004 21.1841 16.5402 21.1642 16.3781C21.1384 16.1672 21.0783 15.9809 20.984 15.7945C19.8146 13.4831 17.6058 11.0433 16.7612 10.1445C16.6833 10.0675 16.746 10.0088 16.8432 10.0593C18.2143 10.7721 19.7028 11.877 21.3089 13.0979C23.7649 14.9563 26.5611 17.0836 29.8847 18.4077C33.2939 19.766 35.9576 23.6481 33.3251 26.2049C30.3261 29.1177 26.2778 30.9706 21.4365 31.6043Z" fill="white"/>
</svg>
