<svg width="48" height="40" viewBox="0 0 48 40" fill="none" xmlns="http://www.w3.org/2000/svg">
<path d="M10.9145 30.5251C10.9145 30.5251 10.9146 30.5253 10.9146 30.5254L16.8336 38.1445C17.92 39.5621 19.9734 39.8338 21.4107 38.7148L22.2369 38.0722C22.8389 37.6112 23.251 36.9234 23.4223 36.1625C24.4125 36.3665 25.3531 36.1165 26.0797 35.5527L26.9117 34.9053C27.5112 34.4383 27.9228 33.7509 28.0947 32.9951C29.1276 33.2075 30.0334 32.9446 30.7476 32.3896L31.5787 31.7431C32.1832 31.2729 32.5958 30.5834 32.7694 29.8218C33.8 30.0325 34.707 29.7742 35.4254 29.2158L36.2574 28.5683C36.699 28.2247 37.0173 27.7864 37.2341 27.3105C45.3098 20.9212 46.5582 19.8184 46.5015 19.8652C48.2486 18.4219 48.5025 15.8203 47.0689 14.0664L36.8091 1.5166C36.022 0.5527 34.856 0 33.6099 0C32.6529 0 31.7183 0.3359 30.98 0.9472L28.0012 3.407L22.3787 4.5268L20.6197 2.3262C19.2213 0.5732 16.6382 0.2637 14.8629 1.6396L1.60212 11.914C-0.204196 13.3138 -0.531996 15.9071 0.868704 17.7099C2.1073 19.3077 3.19012 20.7415 10.9145 30.5251ZM35.0289 26.9902L34.1968 27.6377C33.6393 28.069 32.8389 27.9469 32.4615 27.4551L29.4781 23.166C29.1627 22.7129 28.5386 22.6006 28.0855 22.916C27.6324 23.2314 27.5201 23.8545 27.8355 24.3086L30.6325 28.3275C31.0552 28.8794 30.8919 29.7447 30.3511 30.164L29.5191 30.8115C28.9732 31.2363 28.1793 31.1357 27.7867 30.6338L25.0299 26.625C24.7164 26.1699 24.0943 26.0547 23.6392 26.3672C23.1841 26.6806 23.0689 27.3027 23.3814 27.7578L25.9413 31.4773C25.9417 31.4776 25.9417 31.4781 25.9417 31.4781C26.3668 32.0254 26.2466 32.8887 25.6832 33.3271L24.8521 33.9736C24.3043 34.4004 23.5103 34.2978 23.1207 33.7998L20.5797 30.0713C20.2691 29.6152 19.647 29.499 19.19 29.8086C18.734 30.1191 18.6158 30.7412 18.9273 31.1982L21.2661 34.6266C21.267 34.6279 21.2672 34.6296 21.2681 34.6308C21.6842 35.1728 21.5786 36.0562 21.0142 36.4892L20.1822 37.1367C19.6493 37.5523 18.8513 37.4906 18.4175 36.9228L12.4947 29.2988C12.4934 29.297 12.4912 29.2964 12.4899 29.2947L12.4908 29.2939L5.5982 20.5342L14.9927 13.253L14.6949 17.8281C14.532 20.3294 16.6506 22.3052 19.0084 22.1123C20.5748 22.001 21.9439 20.9795 22.4976 19.5078L24.0787 15.2988C24.5181 14.1305 26.0456 13.9317 26.7945 14.8525L35.3698 25.3495C35.6771 25.8797 35.5516 26.5831 35.0289 26.9902ZM37.3775 24.6455C27.7603 12.8656 38.1112 25.526 28.3433 13.5869C26.5922 11.443 23.1746 12.0162 22.2056 14.5957L20.6246 18.8047C20.3463 19.5459 19.6558 20.0615 18.8658 20.1181C17.5545 20.1874 16.6141 19.1321 16.691 17.958L17.2662 9.1211C17.3257 8.2051 17.9966 7.4385 18.898 7.2588L28.0506 5.4357L41.2503 21.5822L37.3775 24.6455ZM32.2535 2.4883C33.1363 1.7597 34.5367 1.8974 35.2603 2.7822L45.5201 15.332C46.2603 16.2373 46.1285 17.5791 45.2281 18.3242L42.8052 20.3252L29.8492 4.4756L32.2535 2.4883ZM2.8267 13.4951L16.0875 3.2197C17.0035 2.5107 18.3355 2.6699 19.0572 3.5742L20.1702 4.9667L18.5074 5.2978C16.7193 5.6543 15.3882 7.1728 15.2701 8.9912L15.1714 10.5079L4.3638 18.9551L2.4488 16.4844C1.728 15.5582 1.8932 14.218 2.8267 13.4951Z" fill="white"/>
</svg>
