<svg width="18" height="17" viewBox="0 0 18 17" fill="none" xmlns="http://www.w3.org/2000/svg">
<path d="M9.1308 0C4.4014 0 0.570801 3.83274 0.570801 8.56C0.570801 12.3428 3.02324 15.5507 6.4237 16.6813C6.8517 16.7619 7.00863 16.4973 7.00863 16.2697C7.00863 16.0664 7.0015 15.5278 6.99793 14.8145C4.61683 15.331 4.11464 13.666 4.11464 13.666C3.72516 12.6781 3.16234 12.4141 3.16234 12.4141C2.38695 11.8834 3.22226 11.8941 3.22226 11.8941C4.08183 11.954 4.53337 12.7758 4.53337 12.7758C5.29663 14.0848 6.53712 13.7067 7.02647 13.4877C7.10351 12.9342 7.32393 12.5568 7.5686 12.3428C5.66757 12.1288 3.66952 11.3926 3.66952 8.11274C3.66952 7.17827 4.00122 6.41501 4.55049 5.81581C4.45419 5.59967 4.16529 4.7294 4.62539 3.55026C4.62539 3.55026 5.34229 3.32057 6.97939 4.42766C7.66419 4.2372 8.39179 4.14304 9.11939 4.13876C9.84699 4.14304 10.5746 4.2372 11.2594 4.42766C12.8858 3.32057 13.6027 3.55026 13.6027 3.55026C14.0628 4.7294 13.7739 5.59967 13.6883 5.81581C14.234 6.41501 14.5657 7.17827 14.5657 8.11274C14.5657 11.4012 12.5648 12.1252 10.6602 12.3357C10.9598 12.5925 11.238 13.1175 11.238 13.9193C11.238 15.0649 11.2273 15.9851 11.2273 16.2633C11.2273 16.488 11.3771 16.7555 11.8158 16.6699C15.2405 15.5471 17.6908 12.3371 17.6908 8.56C17.6908 3.83274 13.8581 0 9.1308 0Z" fill="white"/>
</svg>
