<svg width="46" height="48" viewBox="0 0 46 48" fill="none" xmlns="http://www.w3.org/2000/svg">
<path d="M22.8 9.40002C22.3 9.40002 21.8 9.40002 21.3 9.50002C15.6 10.1 10.8 14.7 9.9 20.4C9.3 24.1 10.3 27.7 12.5 30.5C15 33.6 16.3 37.2 16.3 40.7C16.3 41.3 16.7 41.7 17.3 41.7H28.3C28.9 41.7 29.3 41.3 29.3 40.7C29.3 36.9 30.5 33.5 32.7 30.9C34.7 28.5 35.8 25.5 35.8 22.4C35.9 15.3 30 9.40002 22.8 9.40002ZM31.2 29.6C28.9 32.3 27.5 35.9 27.3 39.7H18.3C18.1 36 16.7 32.4 14.1 29.2C12.2 26.8 11.4 23.7 11.9 20.6C12.6 15.8 16.7 11.9 21.5 11.4C21.9 11.4 22.4 11.3 22.8 11.3C28.9 11.3 33.9 16.3 33.9 22.4C33.9 25.1 32.9 27.6 31.2 29.6Z" fill="white"/>
<path d="M22.7998 13.6C22.1998 13.6 21.7998 14 21.7998 14.6C21.7998 15.2 22.1998 15.6 22.7998 15.6C26.5998 15.6 29.6998 18.7 29.6998 22.5C29.6998 23.1 30.0998 23.5 30.6998 23.5C31.2998 23.5 31.6998 23.1 31.6998 22.5C31.6998 17.6 27.6998 13.6 22.7998 13.6Z" fill="white"/>
<path d="M44.6002 21.8H38.7002C38.1002 21.8 37.7002 22.2 37.7002 22.8C37.7002 23.4 38.1002 23.8 38.7002 23.8H44.6002C45.2002 23.8 45.6002 23.4 45.6002 22.8C45.6002 22.2 45.1002 21.8 44.6002 21.8Z" fill="white"/>
<path d="M8 22.8C8 22.2 7.6 21.8 7 21.8H1C0.4 21.8 0 22.2 0 22.8C0 23.4 0.4 23.8 1 23.8H6.9C7.5 23.8 8 23.3 8 22.8Z" fill="white"/>
<path d="M22.7998 7.6C23.3998 7.6 23.7998 7.2 23.7998 6.6V1C23.7998 0.4 23.3998 0 22.7998 0C22.1998 0 21.7998 0.4 21.7998 1V6.6C21.7998 7.2 22.1998 7.6 22.7998 7.6Z" fill="white"/>
<path d="M34.1001 12.4C34.4001 12.4 34.6001 12.3 34.8001 12.1L38.8001 8.10002C39.2001 7.70002 39.2001 7.10002 38.8001 6.70002C38.4001 6.30002 37.8001 6.30002 37.4001 6.70002L33.4001 10.7C33.0001 11.1 33.0001 11.7 33.4001 12.1C33.6001 12.3 33.9001 12.4 34.1001 12.4Z" fill="white"/>
<path d="M10.8999 33.3L6.6999 37.5C6.2999 37.9 6.2999 38.5 6.6999 38.9C6.8999 39.1 7.1999 39.2 7.3999 39.2C7.6999 39.2 7.8999 39.1 8.0999 38.9L12.2999 34.7C12.6999 34.3 12.6999 33.7 12.2999 33.3C11.8999 32.9 11.2999 32.9 10.8999 33.3Z" fill="white"/>
<path d="M34.7 33.2C34.3 32.8 33.7 32.8 33.3 33.2C32.9 33.6 32.9 34.2 33.3 34.6L37.5 38.8C37.7 39 38 39.1 38.2 39.1C38.5 39.1 38.7 39 38.9 38.8C39.3 38.4 39.3 37.8 38.9 37.4L34.7 33.2Z" fill="white"/>
<path d="M10.6999 12.1C10.8999 12.3 11.1999 12.4 11.3999 12.4C11.6999 12.4 11.8999 12.3 12.0999 12.1C12.4999 11.7 12.4999 11.1 12.0999 10.7L8.0999 6.70002C7.6999 6.30002 7.0999 6.30002 6.6999 6.70002C6.2999 7.10002 6.2999 7.70002 6.6999 8.10002L10.6999 12.1Z" fill="white"/>
<path d="M28.0001 42.9H17.6001C17.0001 42.9 16.6001 43.3 16.6001 43.9C16.6001 44.5 17.0001 44.9 17.6001 44.9H28.0001C28.6001 44.9 29.0001 44.5 29.0001 43.9C29.0001 43.3 28.5001 42.9 28.0001 42.9Z" fill="white"/>
<path d="M28.0001 46H17.6001C17.0001 46 16.6001 46.4 16.6001 47C16.6001 47.6 17.0001 48 17.6001 48H28.0001C28.6001 48 29.0001 47.6 29.0001 47C29.0001 46.4 28.5001 46 28.0001 46Z" fill="white"/>
</svg>
