<svg width="28" height="12" viewBox="0 0 28 12" fill="none" xmlns="http://www.w3.org/2000/svg">
<mask id="path-1-inside-1" fill="white">
<path fill-rule="evenodd" clip-rule="evenodd" d="M22.6312 12C22.6314 11.9832 22.6315 11.9663 22.6315 11.9494C22.6315 8.85848 20.0277 6.35278 16.8157 6.35278C13.6038 6.35278 11 8.85848 11 11.9494C11 11.9663 11.0001 11.9832 11.0002 12H22.6312Z"/>
</mask>
<path d="M22.6312 12V13.2H23.8203L23.8312 12.011L22.6312 12ZM11.0002 12L9.80028 12.011L9.81122 13.2H11.0002V12ZM21.4315 11.9494C21.4315 11.9626 21.4314 11.9758 21.4313 11.989L23.8312 12.011C23.8314 11.9905 23.8315 11.97 23.8315 11.9494H21.4315ZM16.8157 7.55278C19.4088 7.55278 21.4315 9.56424 21.4315 11.9494H23.8315C23.8315 8.15273 20.6466 5.15278 16.8157 5.15278V7.55278ZM12.2 11.9494C12.2 9.56424 14.2227 7.55278 16.8157 7.55278V5.15278C12.9849 5.15278 9.8 8.15273 9.8 11.9494H12.2ZM12.2002 11.989C12.2001 11.9758 12.2 11.9626 12.2 11.9494H9.8C9.8 11.97 9.80009 11.9905 9.80028 12.011L12.2002 11.989ZM11.0002 13.2H22.6312V10.8H11.0002V13.2Z" fill="#633BFF" mask="url(#path-1-inside-1)"/>
<mask id="path-3-inside-2" fill="white">
<path fill-rule="evenodd" clip-rule="evenodd" d="M23.6468 11.2942C23.475 9.75018 22.7048 8.37845 21.5638 7.39799C22.1581 7.11626 22.8271 6.95801 23.5344 6.95801C26.0007 6.95801 28 8.88203 28 11.2554L27.9999 11.2942H23.6468Z"/>
</mask>
<path d="M23.6468 11.2942L22.4541 11.4269L22.5729 12.4942H23.6468V11.2942ZM21.5638 7.39799L21.0498 6.31363L19.3811 7.10458L20.7817 8.30812L21.5638 7.39799ZM28 11.2554L29.2 11.2609V11.2554H28ZM27.9999 11.2942V12.4942H29.1944L29.1998 11.2997L27.9999 11.2942ZM24.8394 11.1615C24.6321 9.29799 23.7032 7.65425 22.3458 6.48785L20.7817 8.30812C21.7063 9.10265 22.3179 10.2024 22.4541 11.4269L24.8394 11.1615ZM23.5344 5.75801C22.6467 5.75801 21.8025 5.95687 21.0498 6.31363L22.0777 8.48234C22.5138 8.27566 23.0074 8.15801 23.5344 8.15801V5.75801ZM29.2 11.2554C29.2 8.17627 26.6196 5.75801 23.5344 5.75801V8.15801C25.3818 8.15801 26.8 9.58779 26.8 11.2554H29.2ZM29.1998 11.2997L29.2 11.2609L26.8001 11.2499L26.7999 11.2887L29.1998 11.2997ZM23.6468 12.4942H27.9999V10.0942H23.6468V12.4942Z" fill="#633BFF" mask="url(#path-3-inside-2)"/>
<path d="M19.2022 2.92437C19.2022 4.18658 18.1322 5.24874 16.7634 5.24874C15.3945 5.24874 14.3245 4.18658 14.3245 2.92437C14.3245 1.66216 15.3945 0.6 16.7634 0.6C18.1322 0.6 19.2022 1.66216 19.2022 2.92437Z" stroke="#633BFF" stroke-width="1.2"/>
<path d="M24.5464 4.38655C24.5464 5.11968 23.9221 5.75294 23.103 5.75294C22.2839 5.75294 21.6596 5.11968 21.6596 4.38655C21.6596 3.65343 22.2839 3.02017 23.103 3.02017C23.9221 3.02017 24.5464 3.65343 24.5464 4.38655Z" stroke="#633BFF" stroke-width="1.2"/>
<path fill-rule="evenodd" clip-rule="evenodd" d="M4.57161 4.57143C4.57161 4.25584 4.31578 4 4.00019 4C3.68459 4 3.42876 4.25584 3.42876 4.57143V7.42855H0.571428C0.255837 7.42855 0 7.68439 0 7.99998C0 8.31557 0.255837 8.57141 0.571428 8.57141H3.42876V11.4286C3.42876 11.7442 3.68459 12 4.00019 12C4.31578 12 4.57161 11.7442 4.57161 11.4286V8.57141H7.42857C7.74416 8.57141 8 8.31557 8 7.99998C8 7.68439 7.74416 7.42855 7.42857 7.42855H4.57161V4.57143Z" fill="#633BFF"/>
</svg>
