<svg width="24" height="25" viewBox="0 0 24 25" fill="none" xmlns="http://www.w3.org/2000/svg">
<path d="M7.74188 16.8613C7.74188 16.8613 5.82081 13.7608 3.60214 14.904C3.60214 14.904 2.56821 15.6583 3.19656 16.5769C3.19656 16.5769 3.69101 16.4553 4.55016 18.6097C4.91341 19.0112 5.33523 19.3556 5.80135 19.6311C6.36047 19.8716 7.54438 21.2145 8.42529 21.4246C9.3062 21.6348 9.8075 22.7309 12.5075 22.6522C14.1398 22.4533 15.6715 21.7573 16.8949 20.6584C17.6335 20.3238 18.2293 19.7378 18.5761 19.0048C18.9228 18.2719 18.9981 17.4396 18.7884 16.6563C18.6563 15.1144 18.642 13.5648 18.7457 12.0207C18.7457 12.0207 19.1244 11.3788 17.5924 10.207C16.4307 9.09795 15.3288 7.92799 14.2914 6.70203C14.2075 6.39858 14.0639 6.11491 13.8691 5.8676C13.6742 5.62029 13.4321 5.41431 13.1567 5.26171C13.1567 5.26171 9.10643 2.42885 8.7769 2.22943C8.7769 2.22943 7.3442 1.36238 6.99366 2.91193C6.99366 2.91193 6.48038 3.45279 7.21185 4.44354L7.2769 4.70802C7.2769 4.70802 6.3059 4.77612 6.35458 5.56898C6.35458 5.56898 6.04308 7.42599 8.28368 7.31389C9.04546 7.84678 9.85982 8.30026 10.714 8.66724C10.714 8.66724 11.302 9.62011 11.6178 9.6644L8.51869 9.70717C8.03298 9.70253 7.55133 9.79591 7.10254 9.98172C6.65375 10.1675 6.24706 10.442 5.90679 10.7886L4.19652 11.9165C3.95862 12.1512 3.81806 12.467 3.80295 12.8008C3.78784 13.1346 3.89928 13.4618 4.115 13.717C4.21762 13.8656 4.34878 13.9923 4.50083 14.0897C4.65288 14.1871 4.82279 14.2534 5.00068 14.2845C5.17856 14.3157 5.36086 14.3111 5.53697 14.2711C5.71308 14.2312 5.87948 14.1566 6.02649 14.0517L6.92168 13.5266C6.92168 13.5266 7.53868 13.6553 8.88061 12.7155C8.88061 12.7155 11.586 14.2451 13.4548 13.7123C13.3163 14.1394 13.3349 14.6019 13.5073 15.0164C12.9861 16.0732 12.2073 16.9819 11.2427 17.6587C10.0552 17.4932 8.88394 17.2264 7.74188 16.8613Z" fill="white"/>
<path d="M20.4326 7.90667C20.3663 8.24541 20.5871 8.57381 20.9258 8.64015L21.1784 8.68962C21.4809 8.74887 21.7814 8.5787 21.8863 8.2888L23.3478 4.24669C23.4782 3.88625 23.2563 3.49449 22.8802 3.42082L21.9826 3.245C21.6438 3.17865 21.3155 3.39947 21.2491 3.73821L20.4326 7.90667Z" fill="white"/>
</svg>
