<svg width="86" height="25" viewBox="0 0 86 25" fill="none" xmlns="http://www.w3.org/2000/svg">
<path d="M7.74188 16.8613C7.74188 16.8613 5.82081 13.7608 3.60214 14.904C3.60214 14.904 2.56821 15.6583 3.19656 16.5769C3.19656 16.5769 3.69101 16.4553 4.55016 18.6097C4.91341 19.0112 5.33523 19.3556 5.80135 19.6311C6.36047 19.8716 7.54438 21.2145 8.42529 21.4246C9.3062 21.6348 9.8075 22.7309 12.5075 22.6522C14.1398 22.4533 15.6715 21.7573 16.8949 20.6584C17.6335 20.3238 18.2293 19.7378 18.5761 19.0048C18.9228 18.2719 18.9981 17.4396 18.7884 16.6563C18.6563 15.1144 18.642 13.5648 18.7457 12.0207C18.7457 12.0207 19.1244 11.3788 17.5924 10.207C16.4307 9.09795 15.3288 7.92799 14.2914 6.70203C14.2075 6.39858 14.0639 6.11491 13.8691 5.8676C13.6742 5.62029 13.4321 5.41431 13.1567 5.26171C13.1567 5.26171 9.10643 2.42885 8.7769 2.22943C8.7769 2.22943 7.3442 1.36238 6.99366 2.91193C6.99366 2.91193 6.48038 3.45279 7.21185 4.44354L7.2769 4.70802C7.2769 4.70802 6.3059 4.77612 6.35458 5.56898C6.35458 5.56898 6.04308 7.42599 8.28368 7.31389C9.04546 7.84678 9.85982 8.30026 10.714 8.66724C10.714 8.66724 11.302 9.62011 11.6178 9.6644L8.51869 9.70717C8.03298 9.70253 7.55133 9.79591 7.10254 9.98172C6.65375 10.1675 6.24706 10.442 5.90679 10.7886L4.19652 11.9165C3.95862 12.1512 3.81806 12.467 3.80295 12.8008C3.78784 13.1346 3.89928 13.4618 4.115 13.717C4.21762 13.8656 4.34878 13.9923 4.50083 14.0897C4.65288 14.1871 4.82279 14.2534 5.00068 14.2845C5.17856 14.3157 5.36086 14.3111 5.53697 14.2711C5.71308 14.2312 5.87948 14.1566 6.02649 14.0517L6.92168 13.5266C6.92168 13.5266 7.53868 13.6553 8.88061 12.7155C8.88061 12.7155 11.586 14.2451 13.4548 13.7123C13.3163 14.1394 13.3349 14.6019 13.5073 15.0164C12.9861 16.0732 12.2073 16.9819 11.2427 17.6587C10.0552 17.4932 8.88394 17.2264 7.74188 16.8613Z" fill="white"/>
<path d="M20.4326 7.90667C20.3663 8.24541 20.5871 8.57381 20.9258 8.64015L21.1784 8.68962C21.4809 8.74887 21.7814 8.5787 21.8863 8.2888L23.3478 4.24669C23.4782 3.88625 23.2563 3.49449 22.8802 3.42082L21.9826 3.245C21.6438 3.17865 21.3155 3.39947 21.2491 3.73821L20.4326 7.90667Z" fill="white"/>
<path d="M24.3375 13.85C24.375 13.225 24.5313 12.7062 24.8063 12.2937C25.0813 11.8812 25.4313 11.55 25.8563 11.3C26.2813 11.05 26.7563 10.875 27.2813 10.775C27.8188 10.6625 28.3563 10.6062 28.8938 10.6062C29.3813 10.6062 29.875 10.6437 30.375 10.7187C30.875 10.7812 31.3313 10.9125 31.7438 11.1125C32.1563 11.3125 32.4938 11.5937 32.7563 11.9562C33.0188 12.3062 33.15 12.775 33.15 13.3625V18.4062C33.15 18.8437 33.175 19.2625 33.225 19.6625C33.275 20.0625 33.3625 20.3625 33.4875 20.5625H30.7875C30.7375 20.4125 30.6938 20.2625 30.6563 20.1125C30.6313 19.95 30.6125 19.7875 30.6 19.625C30.175 20.0625 29.675 20.3687 29.1 20.5437C28.525 20.7188 27.9375 20.8063 27.3375 20.8063C26.875 20.8063 26.4438 20.75 26.0438 20.6375C25.6438 20.525 25.2938 20.35 24.9938 20.1125C24.6938 19.875 24.4563 19.575 24.2813 19.2125C24.1188 18.85 24.0375 18.4187 24.0375 17.9187C24.0375 17.3687 24.1313 16.9187 24.3188 16.5687C24.5188 16.2062 24.7688 15.9187 25.0688 15.7062C25.3813 15.4937 25.7313 15.3375 26.1188 15.2375C26.5188 15.125 26.9188 15.0375 27.3188 14.975C27.7188 14.9125 28.1125 14.8625 28.5 14.825C28.8875 14.7875 29.2313 14.7312 29.5313 14.6562C29.8313 14.5812 30.0688 14.475 30.2438 14.3375C30.4188 14.1875 30.5 13.975 30.4875 13.7C30.4875 13.4125 30.4375 13.1875 30.3375 13.025C30.25 12.85 30.125 12.7187 29.9625 12.6312C29.8125 12.5312 29.6313 12.4687 29.4188 12.4437C29.2188 12.4062 29 12.3875 28.7625 12.3875C28.2375 12.3875 27.825 12.5 27.525 12.725C27.225 12.95 27.05 13.325 27 13.85H24.3375ZM30.4875 15.8187C30.375 15.9187 30.2313 16 30.0563 16.0625C29.8938 16.1125 29.7125 16.1562 29.5125 16.1937C29.325 16.2312 29.125 16.2625 28.9125 16.2875C28.7 16.3125 28.4875 16.3437 28.275 16.3812C28.075 16.4187 27.875 16.4687 27.675 16.5312C27.4875 16.5937 27.3188 16.6812 27.1688 16.7937C27.0313 16.8937 26.9188 17.025 26.8313 17.1875C26.7438 17.35 26.7 17.5562 26.7 17.8063C26.7 18.0437 26.7438 18.2437 26.8313 18.4062C26.9188 18.5687 27.0375 18.7 27.1875 18.8C27.3375 18.8875 27.5125 18.95 27.7125 18.9875C27.9125 19.025 28.1188 19.0437 28.3313 19.0437C28.8563 19.0437 29.2625 18.9562 29.55 18.7812C29.8375 18.6062 30.05 18.4 30.1875 18.1625C30.325 17.9125 30.4063 17.6625 30.4313 17.4125C30.4688 17.1625 30.4875 16.9625 30.4875 16.8125V15.8187ZM41.8166 14.2812H44.4229C44.3854 13.6562 44.2354 13.1187 43.9729 12.6687C43.7104 12.2062 43.3666 11.825 42.9416 11.525C42.5291 11.2125 42.0541 10.9812 41.5166 10.8312C40.9916 10.6812 40.4416 10.6062 39.8666 10.6062C39.0791 10.6062 38.3791 10.7375 37.7666 11C37.1541 11.2625 36.6354 11.6312 36.2104 12.1062C35.7854 12.5687 35.4604 13.125 35.2354 13.775C35.0229 14.4125 34.9166 15.1062 34.9166 15.8562C34.9166 16.5812 35.0354 17.25 35.2729 17.8625C35.5104 18.4625 35.8416 18.9812 36.2666 19.4187C36.6916 19.8562 37.2041 20.2 37.8041 20.45C38.4166 20.6875 39.0854 20.8063 39.8104 20.8063C41.0979 20.8063 42.1541 20.4687 42.9791 19.7937C43.8041 19.1187 44.3041 18.1375 44.4791 16.85H41.9104C41.8229 17.45 41.6041 17.9312 41.2541 18.2937C40.9166 18.6437 40.4291 18.8187 39.7916 18.8187C39.3791 18.8187 39.0291 18.725 38.7416 18.5375C38.4541 18.35 38.2229 18.1125 38.0479 17.825C37.8854 17.525 37.7666 17.1937 37.6916 16.8312C37.6166 16.4687 37.5791 16.1125 37.5791 15.7625C37.5791 15.4 37.6166 15.0375 37.6916 14.675C37.7666 14.3 37.8916 13.9625 38.0666 13.6625C38.2541 13.35 38.4916 13.1 38.7791 12.9125C39.0666 12.7125 39.4229 12.6125 39.8479 12.6125C40.9854 12.6125 41.6416 13.1687 41.8166 14.2812ZM52.5832 14.2812H55.1895C55.152 13.6562 55.002 13.1187 54.7395 12.6687C54.477 12.2062 54.1332 11.825 53.7082 11.525C53.2957 11.2125 52.8207 10.9812 52.2832 10.8312C51.7582 10.6812 51.2082 10.6062 50.6332 10.6062C49.8457 10.6062 49.1457 10.7375 48.5332 11C47.9207 11.2625 47.402 11.6312 46.977 12.1062C46.552 12.5687 46.227 13.125 46.002 13.775C45.7895 14.4125 45.6832 15.1062 45.6832 15.8562C45.6832 16.5812 45.802 17.25 46.0395 17.8625C46.277 18.4625 46.6082 18.9812 47.0332 19.4187C47.4582 19.8562 47.9707 20.2 48.5707 20.45C49.1832 20.6875 49.852 20.8063 50.577 20.8063C51.8645 20.8063 52.9207 20.4687 53.7457 19.7937C54.5707 19.1187 55.0707 18.1375 55.2457 16.85H52.677C52.5895 17.45 52.3707 17.9312 52.0207 18.2937C51.6832 18.6437 51.1957 18.8187 50.5582 18.8187C50.1457 18.8187 49.7957 18.725 49.5082 18.5375C49.2207 18.35 48.9895 18.1125 48.8145 17.825C48.652 17.525 48.5332 17.1937 48.4582 16.8312C48.3832 16.4687 48.3457 16.1125 48.3457 15.7625C48.3457 15.4 48.3832 15.0375 48.4582 14.675C48.5332 14.3 48.6582 13.9625 48.8332 13.6625C49.0207 13.35 49.2582 13.1 49.5457 12.9125C49.8332 12.7125 50.1895 12.6125 50.6145 12.6125C51.752 12.6125 52.4082 13.1687 52.5832 14.2812ZM59.1123 15.725C59.1123 15.3375 59.1498 14.9562 59.2248 14.5812C59.2998 14.2062 59.4248 13.875 59.5998 13.5875C59.7873 13.3 60.0311 13.0687 60.3311 12.8937C60.6311 12.7062 61.0061 12.6125 61.4561 12.6125C61.9061 12.6125 62.2811 12.7062 62.5811 12.8937C62.8936 13.0687 63.1373 13.3 63.3123 13.5875C63.4998 13.875 63.6311 14.2062 63.7061 14.5812C63.7811 14.9562 63.8186 15.3375 63.8186 15.725C63.8186 16.1125 63.7811 16.4937 63.7061 16.8687C63.6311 17.2312 63.4998 17.5625 63.3123 17.8625C63.1373 18.15 62.8936 18.3812 62.5811 18.5562C62.2811 18.7312 61.9061 18.8187 61.4561 18.8187C61.0061 18.8187 60.6311 18.7312 60.3311 18.5562C60.0311 18.3812 59.7873 18.15 59.5998 17.8625C59.4248 17.5625 59.2998 17.2312 59.2248 16.8687C59.1498 16.4937 59.1123 16.1125 59.1123 15.725ZM56.4498 15.725C56.4498 16.5 56.5686 17.2 56.8061 17.825C57.0436 18.45 57.3811 18.9875 57.8186 19.4375C58.2561 19.875 58.7811 20.2125 59.3936 20.45C60.0061 20.6875 60.6936 20.8063 61.4561 20.8063C62.2186 20.8063 62.9061 20.6875 63.5186 20.45C64.1436 20.2125 64.6748 19.875 65.1123 19.4375C65.5498 18.9875 65.8873 18.45 66.1248 17.825C66.3623 17.2 66.4811 16.5 66.4811 15.725C66.4811 14.95 66.3623 14.25 66.1248 13.625C65.8873 12.9875 65.5498 12.45 65.1123 12.0125C64.6748 11.5625 64.1436 11.2187 63.5186 10.9812C62.9061 10.7312 62.2186 10.6062 61.4561 10.6062C60.6936 10.6062 60.0061 10.7312 59.3936 10.9812C58.7811 11.2187 58.2561 11.5625 57.8186 12.0125C57.3811 12.45 57.0436 12.9875 56.8061 13.625C56.5686 14.25 56.4498 14.95 56.4498 15.725ZM68.2122 10.8687V20.5625H70.8747V16.1937C70.8747 15.7562 70.9185 15.35 71.006 14.975C71.0935 14.6 71.2372 14.275 71.4372 14C71.6497 13.7125 71.9247 13.4875 72.2622 13.325C72.5997 13.1625 73.0122 13.0812 73.4997 13.0812C73.6622 13.0812 73.831 13.0937 74.006 13.1187C74.181 13.1312 74.331 13.15 74.456 13.175V10.7C74.2435 10.6375 74.0497 10.6062 73.8747 10.6062C73.5372 10.6062 73.2122 10.6562 72.8997 10.7562C72.5872 10.8562 72.2935 11 72.0185 11.1875C71.7435 11.3625 71.4997 11.5812 71.2872 11.8437C71.0747 12.0937 70.906 12.3687 70.781 12.6687H70.7435V10.8687H68.2122ZM82.0515 15.6875C82.0515 16.0875 82.014 16.475 81.939 16.85C81.864 17.225 81.739 17.5625 81.564 17.8625C81.389 18.15 81.1515 18.3812 80.8515 18.5562C80.564 18.7312 80.2015 18.8187 79.764 18.8187C79.3515 18.8187 78.9952 18.7312 78.6952 18.5562C78.4077 18.3687 78.164 18.1312 77.964 17.8437C77.7765 17.5437 77.639 17.2062 77.5515 16.8312C77.464 16.4562 77.4202 16.0812 77.4202 15.7062C77.4202 15.3062 77.4577 14.925 77.5327 14.5625C77.6202 14.1875 77.7515 13.8562 77.9265 13.5687C78.114 13.2812 78.3577 13.05 78.6577 12.875C78.9577 12.7 79.3265 12.6125 79.764 12.6125C80.2015 12.6125 80.564 12.7 80.8515 12.875C81.139 13.05 81.3702 13.2812 81.5452 13.5687C81.7327 13.8437 81.864 14.1687 81.939 14.5437C82.014 14.9062 82.0515 15.2875 82.0515 15.6875ZM82.089 19.325V20.5625H84.6202V7.175H81.9577V12.05H81.9202C81.6202 11.575 81.2077 11.2187 80.6827 10.9812C80.1702 10.7312 79.6265 10.6062 79.0515 10.6062C78.339 10.6062 77.714 10.75 77.1765 11.0375C76.639 11.3125 76.189 11.6812 75.8265 12.1437C75.4765 12.6062 75.2077 13.1437 75.0202 13.7562C74.8452 14.3562 74.7577 14.9812 74.7577 15.6312C74.7577 16.3062 74.8452 16.9562 75.0202 17.5812C75.2077 18.2062 75.4765 18.7625 75.8265 19.25C76.189 19.725 76.6452 20.1062 77.1952 20.3937C77.7452 20.6687 78.3827 20.8063 79.1077 20.8063C79.7452 20.8063 80.314 20.6938 80.814 20.4687C81.3265 20.2312 81.739 19.85 82.0515 19.325H82.089Z" fill="white"/>
</svg>
