<svg width="30" height="30" viewBox="0 0 30 30" fill="none" xmlns="http://www.w3.org/2000/svg">
<circle cx="15" cy="15" r="14" stroke="white" stroke-width="2"/>
<path fill-rule="evenodd" clip-rule="evenodd" d="M16.2857 7.28571C16.2857 6.57563 15.7101 6 15 6C14.2899 6 13.7143 6.57563 13.7143 7.28571V13.7143H7.28571C6.57563 13.7143 6 14.2899 6 15C6 15.7101 6.57563 16.2857 7.28571 16.2857H13.7143V22.7143C13.7143 23.4244 14.2899 24 15 24C15.7101 24 16.2857 23.4244 16.2857 22.7143V16.2857H22.7143C23.4244 16.2857 24 15.7101 24 15C24 14.2899 23.4244 13.7143 22.7143 13.7143H16.2857V7.28571Z" fill="white"/>
</svg>
