<svg width="20" height="20" viewBox="0 0 20 20" fill="none" xmlns="http://www.w3.org/2000/svg">
<circle cx="10" cy="10" r="9.26667" stroke="#633BFF" stroke-width="1.46667"/>
<path fill-rule="evenodd" clip-rule="evenodd" d="M10.8571 4.85714C10.8571 4.38376 10.4734 4 9.99998 4C9.52659 4 9.14284 4.38376 9.14284 4.85714V9.14293H4.85702C4.38363 9.14293 3.99988 9.52669 3.99988 10.0001C3.99988 10.4735 4.38363 10.8572 4.85702 10.8572H9.14284V15.1429C9.14284 15.6162 9.52659 16 9.99998 16C10.4734 16 10.8571 15.6162 10.8571 15.1429V10.8572H15.1427C15.6161 10.8572 15.9999 10.4735 15.9999 10.0001C15.9999 9.52669 15.6161 9.14293 15.1427 9.14293H10.8571V4.85714Z" fill="#633BFF"/>
</svg>
