<svg width="41" height="33" viewBox="0 0 41 33" fill="none" xmlns="http://www.w3.org/2000/svg">
<path fill-rule="evenodd" clip-rule="evenodd" d="M0 2C0 0.89543 0.89543 0 2 0H23C24.1046 0 25 0.89543 25 2C25 3.10457 24.1046 4 23 4H4V29H23C24.1046 29 25 29.8954 25 31C25 32.1046 24.1046 33 23 33H2C0.89543 33 0 32.1046 0 31V2ZM30.1456 4.93203L40.1068 14.8932C40.7181 15.5045 40.7181 16.4955 40.1068 17.1068L30.1456 27.068C29.5344 27.6792 28.5433 27.6792 27.932 27.068C27.3208 26.4567 27.3208 25.4656 27.932 24.8544L34.7864 18H18C16.8954 18 16 17.1046 16 16C16 14.8954 16.8954 14 18 14H34.7864L27.932 7.14562C27.3208 6.53436 27.3208 5.5433 27.932 4.93203C28.5433 4.32076 29.5344 4.32076 30.1456 4.93203Z" fill="#6E49FF"/>
</svg>
